<?xml version="1.0" encoding="UTF-8" standalone="no"?>
<!DOCTYPE svg PUBLIC "-//W3C//DTD SVG 1.1//EN" "http://www.w3.org/Graphics/SVG/1.1/DTD/svg11.dtd">
<!-- Generated by Microsoft Visio, SVG Export schema-react-react-native.svg Page-1 -->
<svg xmlns="http://www.w3.org/2000/svg" xmlns:xlink="http://www.w3.org/1999/xlink" xmlns:ev="http://www.w3.org/2001/xml-events"
		xmlns:v="http://schemas.microsoft.com/visio/2003/SVGExtensions/" width="10.1269in" height="5.2399in"
		viewBox="0 0 729.136 377.273" xml:space="preserve" color-interpolation-filters="sRGB" class="st13">
	<v:documentProperties v:langID="1033" v:viewMarkup="false">
		<v:userDefs>
			<v:ud v:nameU="DisableSpdActionTags" v:prompt="" v:val="VT0(0):26"/>
		</v:userDefs>
	</v:documentProperties>

	<style type="text/css">
	<![CDATA[
		.st1 {fill:url(#grad0-4);stroke:#4f87bb;stroke-width:0.75}
		.st2 {visibility:visible}
		.st3 {fill:#5b9bd5;fill-opacity:0.22;filter:url(#filter_2);stroke:#5b9bd5;stroke-opacity:0.22}
		.st4 {fill:#5b9bd5;stroke:#c7c8c8;stroke-width:0.25}
		.st5 {fill:#feffff;font-family:Calibri;font-size:1.5em;font-weight:bold}
		.st6 {font-size:1em}
		.st7 {marker-end:url(#mrkr4-30);stroke:#5b9bd5;stroke-linecap:round;stroke-linejoin:round;stroke-width:4.5}
		.st8 {fill:#5b9bd5;fill-opacity:1;stroke:#5b9bd5;stroke-opacity:1;stroke-width:0.64102564102564}
		.st9 {fill:none;stroke:none;stroke-width:0.25}
		.st10 {fill:#5b9bd5;font-family:Calibri;font-size:1.99999em;font-weight:bold}
		.st11 {fill:#70ad47;fill-opacity:0.22;filter:url(#filter_2);stroke:#70ad47;stroke-opacity:0.22}
		.st12 {fill:#70ad47;stroke:#c7c8c8;stroke-width:0.25}
		.st13 {fill:none;fill-rule:evenodd;font-size:12px;overflow:visible;stroke-linecap:square;stroke-miterlimit:3}
	]]>
	</style>

	<defs id="Patterns_And_Gradients">
		<linearGradient id="grad0-4" x1="0" y1="0" x2="1" y2="0" gradientTransform="rotate(60 0.5 0.5)">
			<stop offset="0" stop-color="#e9eff7" stop-opacity="1"/>
			<stop offset="0.24" stop-color="#f4f7fb" stop-opacity="1"/>
			<stop offset="0.54" stop-color="#feffff" stop-opacity="1"/>
		</linearGradient>
	</defs>
	<defs id="Markers">
		<g id="lend4">
			<path d="M 2 1 L 0 0 L 2 -1 L 2 1 " style="stroke:none"/>
		</g>
		<marker id="mrkr4-30" class="st8" v:arrowType="4" v:arrowSize="2" v:setback="3.12" refX="-3.12" orient="auto"
				markerUnits="strokeWidth" overflow="visible">
			<use xlink:href="#lend4" transform="scale(-1.56,-1.56) "/>
		</marker>
	</defs>
	<defs id="Filters">
		<filter id="filter_2">
			<feGaussianBlur stdDeviation="2"/>
		</filter>
	</defs>
	<g v:mID="0" v:index="1" v:groupContext="foregroundPage">
		<title>Page-1</title>
		<v:pageProperties v:drawingScale="0.0393701" v:pageScale="0.0393701" v:drawingUnits="24" v:shadowOffsetX="8.50394"
				v:shadowOffsetY="-8.50394"/>
		<v:layer v:name="Connector" v:index="0"/>
		<g id="shape26-1" v:mID="26" v:groupContext="shape" transform="translate(512.061,-0.75)">
			<title>Rectangle.26</title>
			<v:userDefs>
				<v:ud v:nameU="visVersion" v:val="VT0(15):26"/>
			</v:userDefs>
			<rect x="0" y="184.003" width="216.325" height="193.27" class="st1"/>
		</g>
		<g id="shape1-5" v:mID="1" v:groupContext="shape" transform="translate(2.7794,-279.456)">
			<title>Rectangle</title>
			<desc>React Component</desc>
			<v:userDefs>
				<v:ud v:nameU="visVersion" v:val="VT0(15):26"/>
			</v:userDefs>
			<v:textBlock v:margins="rect(4,4,4,4)" v:tabSpace="42.5197"/>
			<v:textRect cx="89.0369" cy="360.919" width="178.08" height="32.7075"/>
			<g id="shadow1-6" v:groupContext="shadow" v:shadowOffsetX="0.345598" v:shadowOffsetY="-1.97279" v:shadowType="1"
					transform="matrix(1,0,0,1,0.345598,1.97279)" class="st2">
				<rect x="0" y="344.565" width="178.074" height="32.7075" class="st3"/>
			</g>
			<rect x="0" y="344.565" width="178.074" height="32.7075" class="st4"/>
			<text x="22.17" y="366.32" class="st5" v:langID="1033"><v:paragraph v:horizAlign="1"/><v:tabList/>React Component</text>		</g>
		<g id="shape2-11" v:mID="2" v:groupContext="shape" transform="translate(243.215,-256.125)">
			<title>Circle</title>
			<desc>Virtual DOM</desc>
			<v:userDefs>
				<v:ud v:nameU="visVersion" v:val="VT0(15):26"/>
			</v:userDefs>
			<v:textBlock v:margins="rect(4,4,4,4)" v:tabSpace="42.5197"/>
			<v:textRect cx="39.685" cy="337.588" width="69.45" height="59.5276"/>
			<g id="shadow2-12" v:groupContext="shadow" v:shadowOffsetX="0.345598" v:shadowOffsetY="-1.97279" v:shadowType="1"
					transform="matrix(1,0,0,1,0.345598,1.97279)" class="st2">
				<path d="M0 337.59 A39.685 39.685 0 1 1 79.37 337.59 A39.685 39.685 0 0 1 0 337.59 Z" class="st3"/>
			</g>
			<path d="M0 337.59 A39.685 39.685 0 1 1 79.37 337.59 A39.685 39.685 0 0 1 0 337.59 Z" class="st4"/>
			<text x="14.35" y="332.19" class="st5" v:langID="1033"><v:paragraph v:horizAlign="1"/><v:tabList/>Virtual <tspan
						x="20.06" dy="1.2em" class="st6">DOM</tspan></text>		</g>
		<g id="shape3-18" v:mID="3" v:groupContext="shape" transform="translate(563.53,-239.117)">
			<title>Square</title>
			<desc>DOM HTML</desc>
			<v:userDefs>
				<v:ud v:nameU="visVersion" v:val="VT0(15):26"/>
			</v:userDefs>
			<v:textBlock v:margins="rect(4,4,4,4)" v:tabSpace="42.5197"/>
			<v:textRect cx="56.6929" cy="320.58" width="113.39" height="113.386"/>
			<g id="shadow3-19" v:groupContext="shadow" v:shadowOffsetX="0.345598" v:shadowOffsetY="-1.97279" v:shadowType="1"
					transform="matrix(1,0,0,1,0.345598,1.97279)" class="st2">
				<rect x="0" y="263.887" width="113.386" height="113.386" class="st3"/>
			</g>
			<rect x="0" y="263.887" width="113.386" height="113.386" class="st4"/>
			<text x="37.07" y="315.18" class="st5" v:langID="1033"><v:paragraph v:horizAlign="1"/><v:tabList/>DOM<v:newlineChar/><tspan
						x="34.89" dy="1.2em" class="st6">HTML</tspan></text>		</g>
		<g id="shape4-25" v:mID="4" v:groupContext="shape" v:layerMember="0" transform="translate(180.853,-288.724)">
			<title>Dynamic connector</title>
			<path d="M0 370.19 L48.32 370.19" class="st7"/>
		</g>
		<g id="shape5-31" v:mID="5" v:groupContext="shape" v:layerMember="0" transform="translate(322.586,-288.724)">
			<title>Dynamic connector.5</title>
			<path d="M0 370.19 L226.9 370.19" class="st7"/>
		</g>
		<g id="shape6-36" v:mID="6" v:groupContext="shape" transform="translate(9.32089,-81.0312)">
			<title>Rectangle.6</title>
			<desc>React Component</desc>
			<v:userDefs>
				<v:ud v:nameU="visVersion" v:val="VT0(15):26"/>
			</v:userDefs>
			<v:textBlock v:margins="rect(4,4,4,4)" v:tabSpace="42.5197"/>
			<v:textRect cx="89.0369" cy="360.919" width="178.08" height="32.7075"/>
			<g id="shadow6-37" v:groupContext="shadow" v:shadowOffsetX="0.345598" v:shadowOffsetY="-1.97279" v:shadowType="1"
					transform="matrix(1,0,0,1,0.345598,1.97279)" class="st2">
				<rect x="0" y="344.565" width="178.074" height="32.7075" class="st3"/>
			</g>
			<rect x="0" y="344.565" width="178.074" height="32.7075" class="st4"/>
			<text x="22.17" y="366.32" class="st5" v:langID="1033"><v:paragraph v:horizAlign="1"/><v:tabList/>React Component</text>		</g>
		<g id="shape7-42" v:mID="7" v:groupContext="shape" transform="translate(249.757,-57.6999)">
			<title>Circle.7</title>
			<desc>Virtual DOM</desc>
			<v:userDefs>
				<v:ud v:nameU="visVersion" v:val="VT0(15):26"/>
			</v:userDefs>
			<v:textBlock v:margins="rect(4,4,4,4)" v:tabSpace="42.5197"/>
			<v:textRect cx="39.685" cy="337.588" width="69.45" height="59.5276"/>
			<g id="shadow7-43" v:groupContext="shadow" v:shadowOffsetX="0.345598" v:shadowOffsetY="-1.97279" v:shadowType="1"
					transform="matrix(1,0,0,1,0.345598,1.97279)" class="st2">
				<path d="M0 337.59 A39.685 39.685 0 1 1 79.37 337.59 A39.685 39.685 0 0 1 0 337.59 Z" class="st3"/>
			</g>
			<path d="M0 337.59 A39.685 39.685 0 1 1 79.37 337.59 A39.685 39.685 0 0 1 0 337.59 Z" class="st4"/>
			<text x="14.35" y="332.19" class="st5" v:langID="1033"><v:paragraph v:horizAlign="1"/><v:tabList/>Virtual <tspan
						x="20.06" dy="1.2em" class="st6">DOM</tspan></text>		</g>
		<g id="shape8-49" v:mID="8" v:groupContext="shape" transform="translate(535.184,-101.637)">
			<title>Square.8</title>
			<desc>Android</desc>
			<v:userDefs>
				<v:ud v:nameU="visVersion" v:val="VT0(15):26"/>
			</v:userDefs>
			<v:textBlock v:margins="rect(4,4,4,4)" v:tabSpace="42.5197"/>
			<v:textRect cx="39.685" cy="337.588" width="79.38" height="79.3701"/>
			<g id="shadow8-50" v:groupContext="shadow" v:shadowOffsetX="0.345598" v:shadowOffsetY="-1.97279" v:shadowType="1"
					transform="matrix(1,0,0,1,0.345598,1.97279)" class="st2">
				<rect x="0" y="297.903" width="79.3701" height="79.3701" class="st3"/>
			</g>
			<rect x="0" y="297.903" width="79.3701" height="79.3701" class="st4"/>
			<text x="9.49" y="342.99" class="st5" v:langID="1033"><v:paragraph v:horizAlign="1"/><v:tabList/>Android</text>		</g>
		<g id="shape9-55" v:mID="9" v:groupContext="shape" v:layerMember="0" transform="translate(187.395,-90.2983)">
			<title>Dynamic connector.9</title>
			<path d="M0 370.19 L48.32 370.19" class="st7"/>
		</g>
		<g id="shape11-60" v:mID="11" v:groupContext="shape" transform="translate(535.184,-13.7629)">
			<title>Square.11</title>
			<desc>IOS</desc>
			<v:userDefs>
				<v:ud v:nameU="visVersion" v:val="VT0(15):26"/>
			</v:userDefs>
			<v:textBlock v:margins="rect(4,4,4,4)" v:tabSpace="42.5197"/>
			<v:textRect cx="39.685" cy="337.588" width="79.38" height="79.3701"/>
			<g id="shadow11-61" v:groupContext="shadow" v:shadowOffsetX="0.345598" v:shadowOffsetY="-1.97279" v:shadowType="1"
					transform="matrix(1,0,0,1,0.345598,1.97279)" class="st2">
				<rect x="0" y="297.903" width="79.3701" height="79.3701" class="st3"/>
			</g>
			<rect x="0" y="297.903" width="79.3701" height="79.3701" class="st4"/>
			<text x="26.95" y="342.99" class="st5" v:langID="1033"><v:paragraph v:horizAlign="1"/><v:tabList/>IOS</text>		</g>
		<g id="shape12-66" v:mID="12" v:groupContext="shape" transform="translate(623.058,-101.637)">
			<title>Square.12</title>
			<desc>Windows</desc>
			<v:userDefs>
				<v:ud v:nameU="visVersion" v:val="VT0(15):26"/>
			</v:userDefs>
			<v:textBlock v:margins="rect(4,4,4,4)" v:tabSpace="42.5197"/>
			<v:textRect cx="39.685" cy="337.588" width="79.38" height="79.3701"/>
			<g id="shadow12-67" v:groupContext="shadow" v:shadowOffsetX="0.345598" v:shadowOffsetY="-1.97279" v:shadowType="1"
					transform="matrix(1,0,0,1,0.345598,1.97279)" class="st2">
				<rect x="0" y="297.903" width="79.3701" height="79.3701" class="st3"/>
			</g>
			<rect x="0" y="297.903" width="79.3701" height="79.3701" class="st4"/>
			<text x="4.52" y="342.99" class="st5" v:langID="1033"><v:paragraph v:horizAlign="1"/><v:tabList/>Windows</text>		</g>
		<g id="shape13-72" v:mID="13" v:groupContext="shape" transform="translate(623.058,-13.7629)">
			<title>Square.13</title>
			<desc>MacOSX</desc>
			<v:userDefs>
				<v:ud v:nameU="visVersion" v:val="VT0(15):26"/>
			</v:userDefs>
			<v:textBlock v:margins="rect(4,4,4,4)" v:tabSpace="42.5197"/>
			<v:textRect cx="39.685" cy="337.588" width="79.38" height="79.3701"/>
			<g id="shadow13-73" v:groupContext="shadow" v:shadowOffsetX="0.345598" v:shadowOffsetY="-1.97279" v:shadowType="1"
					transform="matrix(1,0,0,1,0.345598,1.97279)" class="st2">
				<rect x="0" y="297.903" width="79.3701" height="79.3701" class="st3"/>
			</g>
			<rect x="0" y="297.903" width="79.3701" height="79.3701" class="st4"/>
			<text x="8.31" y="342.99" class="st5" v:langID="1033"><v:paragraph v:horizAlign="1"/><v:tabList/>MacOSX</text>		</g>
		<g id="shape21-78" v:mID="21" v:groupContext="shape" transform="translate(2.7794,-344.315)">
			<title>Sheet.21</title>
			<desc>REACT</desc>
			<v:textBlock v:margins="rect(4,4,4,4)" v:tabSpace="42.5197"/>
			<v:textRect cx="68.0315" cy="360.919" width="136.07" height="32.7075"/>
			<rect x="0" y="344.565" width="136.063" height="32.7075" class="st9"/>
			<text x="4" y="368.12" class="st10" v:langID="1033"><v:paragraph/><v:tabList/>REACT</text>		</g>
		<g id="shape22-81" v:mID="22" v:groupContext="shape" transform="translate(2.7794,-161.007)">
			<title>Sheet.22</title>
			<desc>REACT NATIVE</desc>
			<v:textBlock v:margins="rect(4,4,4,4)" v:tabSpace="42.5197"/>
			<v:textRect cx="106.4" cy="367.273" width="212.81" height="20"/>
			<rect x="0" y="357.273" width="212.8" height="20" class="st9"/>
			<text x="4" y="374.47" class="st10" v:langID="1033"><v:paragraph/><v:tabList/>REACT NATIVE</text>		</g>
		<g id="shape29-84" v:mID="29" v:groupContext="shape" transform="translate(376.444,-57.6999)">
			<title>Hexagon</title>
			<desc>BRIDGE NATIF</desc>
			<v:userDefs>
				<v:ud v:nameU="visVersion" v:val="VT0(15):26"/>
			</v:userDefs>
			<v:textBlock v:margins="rect(4,4,4,4)" v:tabSpace="42.5197"/>
			<v:textRect cx="39.685" cy="337.588" width="79.38" height="79.3701"/>
			<g id="shadow29-85" v:groupContext="shadow" v:shadowOffsetX="0.345598" v:shadowOffsetY="-1.97279" v:shadowType="1"
					transform="matrix(1,0,0,1,0.345598,1.97279)" class="st2">
				<path d="M62.6 297.9 L16.77 297.9 L-6.14 337.59 L16.77 377.27 L62.6 377.27 L85.51 337.59 L62.6 297.9 Z"
						class="st11"/>
			</g>
			<path d="M62.6 297.9 L16.77 297.9 L-6.14 337.59 L16.77 377.27 L62.6 377.27 L85.51 337.59 L62.6 297.9 Z" class="st12"/>
			<text x="11.38" y="332.19" class="st5" v:langID="1033"><v:paragraph v:horizAlign="1"/><v:tabList/>BRIDGE<v:newlineChar/><tspan
						x="17.32" dy="1.2em" class="st6">NATIF</tspan></text>		</g>
		<g id="shape30-91" v:mID="30" v:groupContext="shape" v:layerMember="0" transform="translate(329.127,-90.2983)">
			<title>Dynamic connector.30</title>
			<path d="M0 370.19 L27.14 370.19" class="st7"/>
		</g>
		<g id="shape31-96" v:mID="31" v:groupContext="shape" v:layerMember="0" transform="translate(461.953,-90.2983)">
			<title>Dynamic connector.31</title>
			<path d="M0 370.19 L36.07 370.19" class="st7"/>
		</g>
	</g>
</svg>
