<?xml version="1.0" encoding="UTF-8" standalone="no"?>
<!DOCTYPE svg PUBLIC "-//W3C//DTD SVG 1.1//EN" "http://www.w3.org/Graphics/SVG/1.1/DTD/svg11.dtd">
<!-- Generated by Microsoft Visio, SVG Export schema-react-react-native.svg Page-1 -->
<svg xmlns="http://www.w3.org/2000/svg" xmlns:xlink="http://www.w3.org/1999/xlink" xmlns:ev="http://www.w3.org/2001/xml-events"
		xmlns:v="http://schemas.microsoft.com/visio/2003/SVGExtensions/" width="10.1304in" height="4.91535in"
		viewBox="0 0 729.386 353.905" xml:space="preserve" color-interpolation-filters="sRGB" class="st11">
	<v:documentProperties v:langID="1033" v:viewMarkup="false"/>

	<style type="text/css">
	<![CDATA[
		.st1 {fill:url(#grad0-5);stroke:#4f87bb;stroke-width:0.75}
		.st2 {visibility:visible}
		.st3 {fill:#5b9bd5;fill-opacity:0.22;filter:url(#filter_2);stroke:#5b9bd5;stroke-opacity:0.22}
		.st4 {fill:#5b9bd5;stroke:#c7c8c8;stroke-width:0.25}
		.st5 {fill:#feffff;font-family:Calibri;font-size:1.5em;font-weight:bold}
		.st6 {font-size:1em}
		.st7 {marker-end:url(#mrkr4-31);stroke:#5b9bd5;stroke-linecap:round;stroke-linejoin:round;stroke-width:4.5}
		.st8 {fill:#5b9bd5;fill-opacity:1;stroke:#5b9bd5;stroke-opacity:1;stroke-width:0.64102564102564}
		.st9 {fill:none;stroke:none;stroke-width:0.25}
		.st10 {fill:#5b9bd5;font-family:Calibri;font-size:1.99999em;font-weight:bold}
		.st11 {fill:none;fill-rule:evenodd;font-size:12px;overflow:visible;stroke-linecap:square;stroke-miterlimit:3}
	]]>
	</style>

	<defs id="Patterns_And_Gradients">
		<linearGradient id="grad0-5" x1="0" y1="0" x2="1" y2="0" gradientTransform="rotate(60 0.5 0.5)">
			<stop offset="0" stop-color="#e9eff7" stop-opacity="1"/>
			<stop offset="0.24" stop-color="#f4f7fb" stop-opacity="1"/>
			<stop offset="0.54" stop-color="#feffff" stop-opacity="1"/>
		</linearGradient>
	</defs>
	<defs id="Markers">
		<g id="lend4">
			<path d="M 2 1 L 0 0 L 2 -1 L 2 1 " style="stroke:none"/>
		</g>
		<marker id="mrkr4-31" class="st8" v:arrowType="4" v:arrowSize="2" v:setback="3.12" refX="-3.12" orient="auto"
				markerUnits="strokeWidth" overflow="visible">
			<use xlink:href="#lend4" transform="scale(-1.56,-1.56) "/>
		</marker>
	</defs>
	<defs id="Filters">
		<filter id="filter_2">
			<feGaussianBlur stdDeviation="2"/>
		</filter>
	</defs>
	<g v:mID="0" v:index="1" v:groupContext="foregroundPage">
		<title>Page-1</title>
		<v:pageProperties v:drawingScale="0.0393701" v:pageScale="0.0393701" v:drawingUnits="24" v:shadowOffsetX="8.50394"
				v:shadowOffsetY="-8.50394"/>
		<v:layer v:name="Connector" v:index="0"/>
		<g id="group27-1" transform="translate(3.0294,-0.75)" v:mID="27" v:groupContext="group">
			<title>Sheet.27</title>
			<g id="shape26-2" v:mID="26" v:groupContext="shape" transform="translate(509.282,0)">
				<title>Rectangle.26</title>
				<v:userDefs>
					<v:ud v:nameU="visVersion" v:val="VT0(15):26"/>
				</v:userDefs>
				<rect x="0" y="160.635" width="216.325" height="193.27" class="st1"/>
			</g>
			<g id="shape1-6" v:mID="1" v:groupContext="shape" transform="translate(7.99361E-14,-278.706)">
				<title>Rectangle</title>
				<desc>React Component</desc>
				<v:userDefs>
					<v:ud v:nameU="visVersion" v:val="VT0(15):26"/>
				</v:userDefs>
				<v:textBlock v:margins="rect(4,4,4,4)" v:tabSpace="42.5197"/>
				<v:textRect cx="89.0369" cy="337.552" width="178.08" height="32.7075"/>
				<g id="shadow1-7" v:groupContext="shadow" v:shadowOffsetX="0.345598" v:shadowOffsetY="-1.97279" v:shadowType="1"
						transform="matrix(1,0,0,1,0.345598,1.97279)" class="st2">
					<rect x="0" y="321.198" width="178.074" height="32.7075" class="st3"/>
				</g>
				<rect x="0" y="321.198" width="178.074" height="32.7075" class="st4"/>
				<text x="22.17" y="342.95" class="st5" v:langID="1033"><v:paragraph v:horizAlign="1"/><v:tabList/>React Component</text>			</g>
			<g id="shape2-12" v:mID="2" v:groupContext="shape" transform="translate(240.436,-255.375)">
				<title>Circle</title>
				<desc>Virtual DOM</desc>
				<v:userDefs>
					<v:ud v:nameU="visVersion" v:val="VT0(15):26"/>
				</v:userDefs>
				<v:textBlock v:margins="rect(4,4,4,4)" v:tabSpace="42.5197"/>
				<v:textRect cx="39.685" cy="314.22" width="69.45" height="59.5276"/>
				<g id="shadow2-13" v:groupContext="shadow" v:shadowOffsetX="0.345598" v:shadowOffsetY="-1.97279" v:shadowType="1"
						transform="matrix(1,0,0,1,0.345598,1.97279)" class="st2">
					<path d="M0 314.22 A39.685 39.685 0 1 1 79.37 314.22 A39.685 39.685 0 0 1 0 314.22 Z" class="st3"/>
				</g>
				<path d="M0 314.22 A39.685 39.685 0 1 1 79.37 314.22 A39.685 39.685 0 0 1 0 314.22 Z" class="st4"/>
				<text x="14.35" y="308.82" class="st5" v:langID="1033"><v:paragraph v:horizAlign="1"/><v:tabList/>Virtual <tspan
							x="20.06" dy="1.2em" class="st6">DOM</tspan></text>			</g>
			<g id="shape3-19" v:mID="3" v:groupContext="shape" transform="translate(560.751,-238.367)">
				<title>Square</title>
				<desc>DOM HTML</desc>
				<v:userDefs>
					<v:ud v:nameU="visVersion" v:val="VT0(15):26"/>
				</v:userDefs>
				<v:textBlock v:margins="rect(4,4,4,4)" v:tabSpace="42.5197"/>
				<v:textRect cx="56.6929" cy="297.212" width="113.39" height="113.386"/>
				<g id="shadow3-20" v:groupContext="shadow" v:shadowOffsetX="0.345598" v:shadowOffsetY="-1.97279" v:shadowType="1"
						transform="matrix(1,0,0,1,0.345598,1.97279)" class="st2">
					<rect x="0" y="240.519" width="113.386" height="113.386" class="st3"/>
				</g>
				<rect x="0" y="240.519" width="113.386" height="113.386" class="st4"/>
				<text x="37.07" y="291.81" class="st5" v:langID="1033"><v:paragraph v:horizAlign="1"/><v:tabList/>DOM<v:newlineChar/><tspan
							x="34.89" dy="1.2em" class="st6">HTML</tspan></text>			</g>
			<g id="shape4-26" v:mID="4" v:groupContext="shape" v:layerMember="0" transform="translate(178.074,-287.974)">
				<title>Dynamic connector</title>
				<path d="M0 346.82 L48.32 346.82" class="st7"/>
			</g>
			<g id="shape5-32" v:mID="5" v:groupContext="shape" v:layerMember="0" transform="translate(319.806,-287.974)">
				<title>Dynamic connector.5</title>
				<path d="M0 346.82 L226.9 346.82" class="st7"/>
			</g>
			<g id="shape6-37" v:mID="6" v:groupContext="shape" transform="translate(6.54149,-80.2812)">
				<title>Rectangle.6</title>
				<desc>React Component</desc>
				<v:userDefs>
					<v:ud v:nameU="visVersion" v:val="VT0(15):26"/>
				</v:userDefs>
				<v:textBlock v:margins="rect(4,4,4,4)" v:tabSpace="42.5197"/>
				<v:textRect cx="89.0369" cy="337.552" width="178.08" height="32.7075"/>
				<g id="shadow6-38" v:groupContext="shadow" v:shadowOffsetX="0.345598" v:shadowOffsetY="-1.97279" v:shadowType="1"
						transform="matrix(1,0,0,1,0.345598,1.97279)" class="st2">
					<rect x="0" y="321.198" width="178.074" height="32.7075" class="st3"/>
				</g>
				<rect x="0" y="321.198" width="178.074" height="32.7075" class="st4"/>
				<text x="22.17" y="342.95" class="st5" v:langID="1033"><v:paragraph v:horizAlign="1"/><v:tabList/>React Component</text>			</g>
			<g id="shape7-43" v:mID="7" v:groupContext="shape" transform="translate(246.978,-56.9499)">
				<title>Circle.7</title>
				<desc>Virtual DOM</desc>
				<v:userDefs>
					<v:ud v:nameU="visVersion" v:val="VT0(15):26"/>
				</v:userDefs>
				<v:textBlock v:margins="rect(4,4,4,4)" v:tabSpace="42.5197"/>
				<v:textRect cx="39.685" cy="314.22" width="69.45" height="59.5276"/>
				<g id="shadow7-44" v:groupContext="shadow" v:shadowOffsetX="0.345598" v:shadowOffsetY="-1.97279" v:shadowType="1"
						transform="matrix(1,0,0,1,0.345598,1.97279)" class="st2">
					<path d="M0 314.22 A39.685 39.685 0 1 1 79.37 314.22 A39.685 39.685 0 0 1 0 314.22 Z" class="st3"/>
				</g>
				<path d="M0 314.22 A39.685 39.685 0 1 1 79.37 314.22 A39.685 39.685 0 0 1 0 314.22 Z" class="st4"/>
				<text x="14.35" y="308.82" class="st5" v:langID="1033"><v:paragraph v:horizAlign="1"/><v:tabList/>Virtual <tspan
							x="20.06" dy="1.2em" class="st6">DOM</tspan></text>			</g>
			<g id="shape8-50" v:mID="8" v:groupContext="shape" transform="translate(532.405,-100.887)">
				<title>Square.8</title>
				<desc>Android</desc>
				<v:userDefs>
					<v:ud v:nameU="visVersion" v:val="VT0(15):26"/>
				</v:userDefs>
				<v:textBlock v:margins="rect(4,4,4,4)" v:tabSpace="42.5197"/>
				<v:textRect cx="39.685" cy="314.22" width="79.38" height="79.3701"/>
				<g id="shadow8-51" v:groupContext="shadow" v:shadowOffsetX="0.345598" v:shadowOffsetY="-1.97279" v:shadowType="1"
						transform="matrix(1,0,0,1,0.345598,1.97279)" class="st2">
					<rect x="0" y="274.535" width="79.3701" height="79.3701" class="st3"/>
				</g>
				<rect x="0" y="274.535" width="79.3701" height="79.3701" class="st4"/>
				<text x="9.49" y="319.62" class="st5" v:langID="1033"><v:paragraph v:horizAlign="1"/><v:tabList/>Android</text>			</g>
			<g id="shape9-56" v:mID="9" v:groupContext="shape" v:layerMember="0" transform="translate(184.615,-89.5483)">
				<title>Dynamic connector.9</title>
				<path d="M0 346.82 L48.32 346.82" class="st7"/>
			</g>
			<g id="shape11-61" v:mID="11" v:groupContext="shape" transform="translate(532.405,-13.0129)">
				<title>Square.11</title>
				<desc>IOS</desc>
				<v:userDefs>
					<v:ud v:nameU="visVersion" v:val="VT0(15):26"/>
				</v:userDefs>
				<v:textBlock v:margins="rect(4,4,4,4)" v:tabSpace="42.5197"/>
				<v:textRect cx="39.685" cy="314.22" width="79.38" height="79.3701"/>
				<g id="shadow11-62" v:groupContext="shadow" v:shadowOffsetX="0.345598" v:shadowOffsetY="-1.97279" v:shadowType="1"
						transform="matrix(1,0,0,1,0.345598,1.97279)" class="st2">
					<rect x="0" y="274.535" width="79.3701" height="79.3701" class="st3"/>
				</g>
				<rect x="0" y="274.535" width="79.3701" height="79.3701" class="st4"/>
				<text x="26.95" y="319.62" class="st5" v:langID="1033"><v:paragraph v:horizAlign="1"/><v:tabList/>IOS</text>			</g>
			<g id="shape12-67" v:mID="12" v:groupContext="shape" transform="translate(620.279,-100.887)">
				<title>Square.12</title>
				<desc>Windows</desc>
				<v:userDefs>
					<v:ud v:nameU="visVersion" v:val="VT0(15):26"/>
				</v:userDefs>
				<v:textBlock v:margins="rect(4,4,4,4)" v:tabSpace="42.5197"/>
				<v:textRect cx="39.685" cy="314.22" width="79.38" height="79.3701"/>
				<g id="shadow12-68" v:groupContext="shadow" v:shadowOffsetX="0.345598" v:shadowOffsetY="-1.97279" v:shadowType="1"
						transform="matrix(1,0,0,1,0.345598,1.97279)" class="st2">
					<rect x="0" y="274.535" width="79.3701" height="79.3701" class="st3"/>
				</g>
				<rect x="0" y="274.535" width="79.3701" height="79.3701" class="st4"/>
				<text x="4.52" y="319.62" class="st5" v:langID="1033"><v:paragraph v:horizAlign="1"/><v:tabList/>Windows</text>			</g>
			<g id="shape13-73" v:mID="13" v:groupContext="shape" transform="translate(620.279,-13.0129)">
				<title>Square.13</title>
				<desc>MacOSX</desc>
				<v:userDefs>
					<v:ud v:nameU="visVersion" v:val="VT0(15):26"/>
				</v:userDefs>
				<v:textBlock v:margins="rect(4,4,4,4)" v:tabSpace="42.5197"/>
				<v:textRect cx="39.685" cy="314.22" width="79.38" height="79.3701"/>
				<g id="shadow13-74" v:groupContext="shadow" v:shadowOffsetX="0.345598" v:shadowOffsetY="-1.97279" v:shadowType="1"
						transform="matrix(1,0,0,1,0.345598,1.97279)" class="st2">
					<rect x="0" y="274.535" width="79.3701" height="79.3701" class="st3"/>
				</g>
				<rect x="0" y="274.535" width="79.3701" height="79.3701" class="st4"/>
				<text x="8.31" y="319.62" class="st5" v:langID="1033"><v:paragraph v:horizAlign="1"/><v:tabList/>MacOSX</text>			</g>
			<g id="shape21-79" v:mID="21" v:groupContext="shape" transform="translate(294.294,-292.88)">
				<title>Sheet.21</title>
				<desc>REACT</desc>
				<v:textBlock v:margins="rect(4,4,4,4)" v:tabSpace="42.5197"/>
				<v:textRect cx="138.898" cy="337.552" width="277.8" height="32.7075"/>
				<rect x="0" y="321.198" width="277.795" height="32.7075" class="st9"/>
				<text x="106.72" y="344.75" class="st10" v:langID="1033"><v:paragraph v:horizAlign="1"/><v:tabList/>REACT</text>			</g>
			<g id="shape22-82" v:mID="22" v:groupContext="shape" transform="translate(326.792,-116.32)">
				<title>Sheet.22</title>
				<desc>REACT NATIVE</desc>
				<v:textBlock v:margins="rect(4,4,4,4)" v:tabSpace="42.5197"/>
				<v:textRect cx="106.4" cy="343.905" width="212.81" height="20"/>
				<rect x="0" y="333.905" width="212.8" height="20" class="st9"/>
				<text x="74.23" y="336.71" class="st10" v:langID="1033"><v:paragraph v:horizAlign="1"/><v:tabList/>REACT<v:newlineChar/><tspan
							x="69.13" dy="1.2em" class="st6">NATIVE</tspan></text>			</g>
			<g id="shape25-86" v:mID="25" v:groupContext="shape" v:layerMember="0" transform="translate(326.348,-89.5483)">
				<title>Dynamic connector.25</title>
				<path d="M0 346.82 L168.89 346.82" class="st7"/>
			</g>
		</g>
	</g>
</svg>
